<svg version="1" xmlns="http://www.w3.org/2000/svg" width="128" height="128" viewBox="0 0 1280 1280"><g fill="#ee4546"><path d="M560 1129c-123-16-262-104-333-212-31-47-77-158-77-187 0-5 20-10 45-10 35 0 47 4 52 18 28 81 61 137 112 185 89 85 167 117 286 117s197-32 286-117c51-48 84-104 112-185 5-14 17-18 52-18 25 0 45 5 45 10 0 6-9 38-21 72-77 229-302 361-559 327z"/><path d="M480 650V450h37c25 0 74 18 148 54 60 30 138 67 172 83 59 26 62 30 62 63s-2 36-62 63c-34 15-66 27-71 27-4 0-28 14-53 30-24 17-48 30-54 30-5 0-32 11-59 25s-65 25-85 25h-35V650z"/><path d="M150 561c0-31 43-137 75-185 193-292 645-294 838-3 31 47 77 158 77 187 0 5-20 10-45 10-35 0-47-4-52-17-28-82-61-138-112-186-89-85-167-117-286-117s-197 32-286 117c-51 48-84 104-112 186-5 13-17 17-52 17-25 0-45-4-45-9z"/></g></svg>