<svg xmlns="http://www.w3.org/2000/svg" viewBox="0 0 32 32" id="svg13"><defs id="defs4"><style id="style2">.cls-1{fill:#8c9eff}.cls-2{fill:#5f7cf9}</style></defs><title id="title6"/><g data-name="Play Button" id="Play_Button" transform="matrix(-1.08164 0 0 1 32.334 0)"><path class="cls-1" d="M22.58 13.41l-11.06-6.5A3 3 0 0 0 7 9.5v13a3 3 0 0 0 1.51 2.61 3.08 3.08 0 0 0 1.49.4 3 3 0 0 0 1.52-.42l11.06-6.5a3 3 0 0 0 0-5.18z" id="path8" fill="#8c9eff"/><path class="cls-2" d="M7 16v6.5a3 3 0 0 0 1.51 2.61 3.08 3.08 0 0 0 1.49.4 3 3 0 0 0 1.52-.42l11.06-6.5A3 3 0 0 0 24.06 16z" id="path10" fill="#5f7cf9"/></g></svg>